# xmcd
#
# Track frame offsets:
#	150
#	17173
#	24176
#	36404
#	47357
#	71525
#	98888
#	116927
#	123312
#	139822
#	153140
#	170923
#
# Disc length: 2538 seconds
#
# Revision: 1
# Processed by: cddbd v1.5.1PL0 Copyright (c) Steve Scherf et al.
# Submitted via: audiograbber 1.82.02
#
DISCID=9e09e80c
DTITLE=Col Elliott - It's A Quid Mate
DYEAR=1900
DGENRE=Humor
TTITLE0=Hey Bandy
TTITLE1=Hello Dickhead
TTITLE2=Its A Feeling
TTITLE3=Appendectomy
TTITLE4=Zzar
TTITLE5=Roony's Two Bob
TTITLE6=It's A Quid Mate
TTITLE7=Whats Your IQ
TTITLE8=Clyde Of The CRB
TTITLE9=Kids
TTITLE10=Giuseppe Phone Have
TTITLE11=What's A Promise
EXTD=
EXTT0=
EXTT1=
EXTT2=
EXTT3=
EXTT4=
EXTT5=
EXTT6=
EXTT7=
EXTT8=
EXTT9=
EXTT10=
EXTT11=
PLAYORDER=
